<svg width="56" height="56" fill="none" xmlns="http://www.w3.org/2000/svg"><g clip-path="url(#a)"><path fill="#F9F9F9" d="M.001 0H56v55.999H.001z"/><path d="M32.557 27.977h-3.262V40H24.35V27.977h-2.35V23.75h2.35v-2.734c0-1.955.924-5.017 4.988-5.017l3.661.015v4.102h-2.657c-.435 0-1.048.219-1.048 1.151v2.487h3.694l-.432 4.222Z" fill="#36BA5F"/></g><defs><clipPath id="a"><path d="M0 13.331C0 5.97 5.97 0 13.333 0h29.337C50.032 0 56 5.969 56 13.331v29.337C56 50.031 50.032 56 42.669 56H13.332C5.969 56 0 50.031 0 42.67V13.33Z" fill="#fff"/></clipPath></defs></svg>