<svg width="57" height="56" fill="none" xmlns="http://www.w3.org/2000/svg"><rect x=".004" y=".001" width="55.999" height="55.999" rx="13.331" fill="#F9F9F9"/><path fill-rule="evenodd" clip-rule="evenodd" d="M18.204 23.645a5.445 5.445 0 0 1 5.444-5.445h8.712a5.445 5.445 0 0 1 5.444 5.445v8.711a5.445 5.445 0 0 1-5.444 5.445h-8.712a5.445 5.445 0 0 1-5.444-5.445v-8.711Zm17.413-2.178a1.09 1.09 0 1 0-2.178 0 1.09 1.09 0 0 0 2.178 0Zm-7.61 1.089a5.445 5.445 0 1 1-.001 10.89 5.445 5.445 0 0 1 .001-10.89Zm-3.272 5.443a3.267 3.267 0 1 1 6.534 0 3.267 3.267 0 0 1-6.534 0Z" fill="#36BA5F"/></svg>