<svg width="51" height="58" fill="none" xmlns="http://www.w3.org/2000/svg"><g filter="url(#a)"><path fill-rule="evenodd" clip-rule="evenodd" d="M29 50c12.15 0 22-9.85 22-22S41.15 6 29 6 7 15.85 7 28s9.85 22 22 22Z" fill="#fff"/></g><path d="M26.29 22.71a.996.996 0 0 0 0 1.41L30.17 28l-3.88 3.88a.996.996 0 1 0 1.41 1.41l4.59-4.59a.996.996 0 0 0 0-1.41L27.7 22.7c-.38-.38-1.02-.38-1.41.01Z" fill="#1A1A1A"/><defs><filter id="a" x="0" y="0" width="58" height="58" filterUnits="userSpaceOnUse" color-interpolation-filters="sRGB"><feFlood flood-opacity="0" result="BackgroundImageFix"/><feColorMatrix in="SourceAlpha" values="0 0 0 0 0 0 0 0 0 0 0 0 0 0 0 0 0 0 127 0" result="hardAlpha"/><feOffset dy="1"/><feGaussianBlur stdDeviation="3.5"/><feColorMatrix values="0 0 0 0 0 0 0 0 0 0 0 0 0 0 0 0 0 0 0.09 0"/><feBlend in2="BackgroundImageFix" result="effect1_dropShadow_1_269"/><feBlend in="SourceGraphic" in2="effect1_dropShadow_1_269" result="shape"/></filter></defs></svg>