<svg width="57" height="56" fill="none" xmlns="http://www.w3.org/2000/svg"><g clip-path="url(#a)"><path fill="#F9F9F9" d="M.004-.001h55.999v55.999H.004z"/><path d="M37.054 21.933a5.42 5.42 0 0 1-3.275-1.095 5.432 5.432 0 0 1-2.165-4.292H28.1v9.598l-.004 5.258a3.179 3.179 0 0 1-3.364 3.172 3.166 3.166 0 0 1-1.454-.445 3.18 3.18 0 0 1-1.554-2.68 3.182 3.182 0 0 1 4.188-3.064v-3.567a6.918 6.918 0 0 0-1.013-.075 6.736 6.736 0 0 0-5.061 2.264 6.589 6.589 0 0 0-1.662 3.975 6.58 6.58 0 0 0 1.96 5.127 6.737 6.737 0 0 0 4.763 1.95c.342 0 .68-.025 1.013-.075a6.712 6.712 0 0 0 3.75-1.875 6.576 6.576 0 0 0 1.973-4.68l-.018-7.85a8.877 8.877 0 0 0 5.446 1.85v-3.497h-.01Z" fill="#36BA5F"/></g><defs><clipPath id="a"><rect x=".003" width="55.999" height="55.999" rx="13.331" fill="#fff"/></clipPath></defs></svg>