<svg width="57" height="56" fill="none" xmlns="http://www.w3.org/2000/svg"><g clip-path="url(#a)"><path fill="#F9F9F9" d="M.002 0h55.999v55.999H.002z"/><path d="M39.303 21.241a9.537 9.537 0 0 1-2.746.752 4.793 4.793 0 0 0 2.102-2.644 9.572 9.572 0 0 1-3.035 1.16 4.776 4.776 0 0 0-3.49-1.51 4.781 4.781 0 0 0-4.657 5.87 13.57 13.57 0 0 1-9.853-4.995 4.78 4.78 0 0 0 1.48 6.383 4.747 4.747 0 0 1-2.166-.599v.061a4.783 4.783 0 0 0 3.835 4.687 4.764 4.764 0 0 1-2.16.083 4.786 4.786 0 0 0 4.466 3.32 9.592 9.592 0 0 1-5.937 2.046c-.385 0-.767-.022-1.14-.067a13.522 13.522 0 0 0 7.327 2.148c8.793 0 13.602-7.284 13.602-13.602 0-.207-.005-.414-.014-.618a9.694 9.694 0 0 0 2.386-2.475Z" fill="#36BA5F"/></g><defs><clipPath id="a"><path d="M.002 13.331C.002 5.97 5.971 0 13.333 0H42.67c7.363 0 13.331 5.969 13.331 13.331v29.337c0 7.363-5.968 13.331-13.33 13.331H13.332C5.971 56 .003 50.031.003 42.67V13.33Z" fill="#fff"/></clipPath></defs></svg>