<svg width="56" height="56" fill="none" xmlns="http://www.w3.org/2000/svg"><g clip-path="url(#a)"><path fill="#F9F9F9" d="M.001 0H56v55.999H.001z"/><path fill-rule="evenodd" clip-rule="evenodd" d="M46 28.198v-.397c-7.97-.241-11.614-.44-14.521-3.28C28.64 21.616 28.44 17.972 28.2 10h-.398c-.24 7.97-.44 11.615-3.279 14.522-2.907 2.84-6.551 3.038-14.522 3.28v.397c7.97.24 11.615.44 14.522 3.278 2.839 2.907 3.039 6.552 3.28 14.522h.397c.24-7.97.44-11.615 3.279-14.522 2.907-2.839 6.552-3.038 14.522-3.279Z" fill="#36BA5F"/></g><defs><clipPath id="a"><path d="M.001 13.331C.001 5.97 5.97 0 13.333 0H42.67C50.032 0 56 5.969 56 13.331v29.337C56 50.031 50.033 56 42.67 56H13.332C5.97 56 .002 50.031.002 42.67V13.33Z" fill="#fff"/></clipPath></defs></svg>